<svg xmlns="http://www.w3.org/2000/svg" width="28" height="28" viewBox="0 0 28 28">
  <g id="Icon" transform="translate(0.181 0.872)">
    <rect id="Area" width="28" height="28" transform="translate(-0.181 -0.872)" fill="#fff" opacity="0"/>
    <g id="Icon-2" data-name="Icon" transform="translate(-0.016 0.077)">
      <path id="_74ede767-f918-4e5a-b418-d208dafea690" data-name="74ede767-f918-4e5a-b418-d208dafea690" d="M0,0H26.725V26.725H0Z" fill="none"/>
      <path id="_235091f5-e9b2-4cd1-8213-ef6f1ce5be54" data-name="235091f5-e9b2-4cd1-8213-ef6f1ce5be54" d="M4.447,5H6.674A1.113,1.113,0,0,1,7.788,6.113V9.454a1.114,1.114,0,0,1-1.114,1.114H4.447A1.114,1.114,0,0,1,3.333,9.454V6.113A1.113,1.113,0,0,1,4.447,5Z" transform="translate(1.121 1.681)" fill="none" stroke="#f85e11" stroke-linecap="round" stroke-linejoin="round" stroke-width="1.7"/>
      <path id="db0da9a8-e9a9-4814-b3ca-d80b068a03cc" d="M5,3.333V5.561" transform="translate(1.681 1.121)" fill="none" stroke="#f85e11" stroke-linecap="round" stroke-linejoin="round" stroke-width="1.7"/>
      <path id="ba019208-9a72-4687-a2e7-721024bb1cf2" d="M5,9.167V19.189" transform="translate(1.681 3.082)" fill="none" stroke="#f85e11" stroke-linecap="round" stroke-linejoin="round" stroke-width="1.7"/>
      <path id="a35cdbc3-7ca1-4aea-9c81-6ab58ff28f45" d="M9.447,11.667h2.226a1.113,1.113,0,0,1,1.114,1.113v3.341a1.113,1.113,0,0,1-1.114,1.113H9.447a1.113,1.113,0,0,1-1.114-1.113V12.78A1.113,1.113,0,0,1,9.447,11.667Z" transform="translate(2.802 3.923)" fill="none" stroke="#f85e11" stroke-linecap="round" stroke-linejoin="round" stroke-width="1.7"/>
      <path id="_84b227ae-ac1f-498a-acff-f18631790d1f" data-name="84b227ae-ac1f-498a-acff-f18631790d1f" d="M10,3.333V14.469" transform="translate(3.362 1.121)" fill="none" stroke="#f85e11" stroke-linecap="round" stroke-linejoin="round" stroke-width="1.7"/>
      <path id="_2af03c1f-f4e0-419b-8bdd-d0fe6bc174ec" data-name="2af03c1f-f4e0-419b-8bdd-d0fe6bc174ec" d="M10,15.833v1.114" transform="translate(3.362 5.324)" fill="none" stroke="#f85e11" stroke-linecap="round" stroke-linejoin="round" stroke-width="1.7"/>
      <path id="_033c7db6-df59-49dc-b032-21cd1c8d9d6c" data-name="033c7db6-df59-49dc-b032-21cd1c8d9d6c" d="M14.447,4.167h2.226A1.113,1.113,0,0,1,17.788,5.28V9.734a1.114,1.114,0,0,1-1.114,1.114H14.447a1.114,1.114,0,0,1-1.114-1.114V5.28A1.113,1.113,0,0,1,14.447,4.167Z" transform="translate(4.483 1.401)" fill="none" stroke="#f85e11" stroke-linecap="round" stroke-linejoin="round" stroke-width="1.7"/>
      <path id="_60a3ae8e-957e-4ef7-9ec4-24326005b557" data-name="60a3ae8e-957e-4ef7-9ec4-24326005b557" d="M15,3.333V4.447" transform="translate(5.044 1.121)" fill="none" stroke="#f85e11" stroke-linecap="round" stroke-linejoin="round" stroke-width="1.7"/>
      <path id="ca197b1f-22a3-4b9f-8481-11f9fe862481" d="M15,9.167V19.189" transform="translate(5.044 3.082)" fill="none" stroke="#f85e11" stroke-linecap="round" stroke-linejoin="round" stroke-width="1.7"/>
    </g>
  </g>
</svg>
