<svg xmlns="http://www.w3.org/2000/svg" width="39" height="38" viewBox="0 0 39 38">
  <g id="Circle_Button" data-name="Circle Button" transform="translate(0.461 -0.113)">
    <rect id="Area" width="39" height="38" rx="19" transform="translate(-0.461 0.113)"/>
    <g id="Icon" transform="translate(11.506 11.392)">
      <rect id="Area-2" data-name="Area" width="16" height="15" transform="translate(0.033 -0.28)" fill="#fff" opacity="0"/>
      <g id="Icon-2" data-name="Icon" transform="translate(1.393 0)">
        <path id="_84218388-eb30-48d9-b004-5ab61b04feb6" data-name="84218388-eb30-48d9-b004-5ab61b04feb6" d="M15.7,2.385a3.621,3.621,0,0,0-2.673,1.308v.019a3.433,3.433,0,0,0-.834,2.616c-.078-.031-.083-.021-.17-.057a4.055,4.055,0,0,0-1.554-.36c-2.415,0-4.247,2.187-4.247,5.061a9.3,9.3,0,0,0,1.46,4.91,6.667,6.667,0,0,0,1.384,1.592,2.553,2.553,0,0,0,1.592.683A3.165,3.165,0,0,0,12,17.816a2.266,2.266,0,0,1,1.061-.266,2.091,2.091,0,0,1,.986.266,3.265,3.265,0,0,0,1.383.341,2.483,2.483,0,0,0,1.649-.72,6.691,6.691,0,0,0,1.138-1.422,12.225,12.225,0,0,0,.739-1.384c.09-.2.156-.36.209-.492a1.806,1.806,0,0,0,.113-.323l.114-.493-.455-.208a3.241,3.241,0,0,1-.91-.645,2.338,2.338,0,0,1-.7-1.725,2.474,2.474,0,0,1,.626-1.687,3.108,3.108,0,0,1,.455-.436,1.66,1.66,0,0,1,.152-.095c.038-.024.031-.017.1-.057l.512-.322-.341-.512a3.839,3.839,0,0,0-3.2-1.725,3.633,3.633,0,0,0-.758.152,3.579,3.579,0,0,0,.455-.379s0-.017,0-.019a.11.11,0,0,0,.019-.019h.019a3.737,3.737,0,0,0,.948-2.691l-.038-.569Zm-.72,1.4a2.511,2.511,0,0,1-.549,1.081l-.038.038a2.146,2.146,0,0,1-.948.682,3,3,0,0,1,.512-1.1c.005-.007.014-.012.019-.019A2.684,2.684,0,0,1,14.98,3.788ZM10.469,7.124a3.113,3.113,0,0,1,1.1.284,3.143,3.143,0,0,0,1.27.36,4.019,4.019,0,0,0,1.365-.36,4.5,4.5,0,0,1,1.422-.284,2.98,2.98,0,0,1,1.763.815,3.258,3.258,0,0,0-.341.322,3.766,3.766,0,0,0-.929,2.483,3.66,3.66,0,0,0,1.042,2.578,2.8,2.8,0,0,0,.8.569c-.033.076-.052.135-.095.227A11.448,11.448,0,0,1,17.2,15.37a5.579,5.579,0,0,1-.929,1.156,1.35,1.35,0,0,1-.834.417,1.983,1.983,0,0,1-.891-.246,3.479,3.479,0,0,0-1.478-.36,3.7,3.7,0,0,0-1.554.36,1.918,1.918,0,0,1-.853.246,1.631,1.631,0,0,1-.834-.417,5.6,5.6,0,0,1-1.119-1.308,8.136,8.136,0,0,1-1.27-4.246C7.435,8.581,8.769,7.124,10.469,7.124Z" transform="translate(-6.222 -2.385)" fill="#fff"/>
      </g>
    </g>
  </g>
</svg>
