<svg xmlns="http://www.w3.org/2000/svg" xmlns:xlink="http://www.w3.org/1999/xlink" width="160.599" height="102.299" viewBox="0 0 160.599 102.299">
  <defs>
    <clipPath id="clip-path">
      <rect id="Rectangle_147" data-name="Rectangle 147" width="117.83" height="95.176" fill="none"/>
    </clipPath>
  </defs>
  <g id="Group_171" data-name="Group 171" transform="translate(-39.665 -555)">
    <g id="Group_169" data-name="Group 169" transform="translate(65.714 561.157)">
      <g id="Group_160" data-name="Group 160" transform="translate(0)" clip-path="url(#clip-path)">
        <path id="Path_35" data-name="Path 35" d="M58.915,95.176c-15.646,0-30.395-4.889-41.477-13.771C6.193,72.442,0,60.381,0,47.588S6.193,22.816,17.438,13.771C28.52,4.889,43.269,0,58.915,0s30.395,4.889,41.477,13.771c11.245,8.964,17.438,21.024,17.438,33.817s-6.193,24.772-17.438,33.817C89.309,90.287,74.56,95.176,58.915,95.176" transform="translate(0)" fill="#fff"/>
        <path id="Path_36" data-name="Path 36" d="M118.166,50.869c0-24.691-25.1-44.655-56.063-44.655S6.041,26.178,6.041,50.869c0,21.513,19.149,39.521,44.655,43.758,3.5-18.334,23.387-31.046,32.35-38.217,6.926-5.541,6.845-10.675,5.378-14.342-.326-.815-1.141-.571-1.548-.326-.978.57-5.215,2.282-7.578-1.63a.44.44,0,0,0-.652-.163c-.245.163-.163.489-.082.733.733,2.363,2.037,3.912,3.83,4.156a5.9,5.9,0,0,0,3.015-.734c.815-.326.978.082.978.489.326,5.134-6.111,9.289-8.067,10.838C74.164,58.773,57.215,70.914,53.14,73.2c-6.682,3.83-13.527,6.926-20.127,1.059-5.134-4.563-6.274-12.142-7.416-17.112a8.513,8.513,0,0,0-4.237-5.867c-1.548-.9-1.141-1.467.163-1.793,11.816-2.852,43.6-9.045,52.722-11.245.571-.163,2.282-.407,2.037-1.63-.163-.978-2.2-.571-2.933-.489C61.7,38.157,23.4,45.246,20.708,45.735a4.418,4.418,0,0,0-3.5,2.608c-.489,1.059-1.385,1.466-1.874-.082a4.216,4.216,0,0,1-.163-1.793c.326-2.526,1.141-4.156,3.83-4.4,2.526-.245,8.882-1.141,10.838-1.549,8.23-1.711,25.831-4.563,43.025-9.127,0,0,3.26-5.46,11.571-7.089A18.246,18.246,0,0,1,103.01,32.86c2.282,3.667,3.422,8.393,2.77,8.556-.407.081-2.77-1.956-2.689-.163,0,.9-.082,2.037-.163,3.015-1.222,10.756-11.653,19.72-19.394,27.705a23.223,23.223,0,0,0-3.749,5.052c-1.3,2.444-1.793,5.3-.652,7.333a5.924,5.924,0,0,0,4.971,3.1c2.282.245,5.948-.163,11.652-2.119a27.314,27.314,0,0,0,9.7-6.03c7.9-7.823,12.712-17.682,12.712-28.439" transform="translate(-3.189 -3.28)" fill="#fe5000"/>
        <path id="Path_37" data-name="Path 37" d="M159.825,58.2a2.282,2.282,0,1,0,2.282-2.282,2.278,2.278,0,0,0-2.282,2.282" transform="translate(-84.368 -29.52)" fill="#fe5000"/>
      </g>
    </g>
    <ellipse id="Ellipse_21" data-name="Ellipse 21" cx="12.65" cy="12.65" rx="12.65" ry="12.65" transform="translate(39.665 566)" fill="#fe5001"/>
    <ellipse id="Ellipse_22" data-name="Ellipse 22" cx="4.95" cy="5.5" rx="4.95" ry="5.5" transform="translate(89.165 555)" fill="#fe5001"/>
    <ellipse id="Ellipse_23" data-name="Ellipse 23" cx="8.8" cy="9.35" rx="8.8" ry="9.35" transform="translate(182.664 638.6)" fill="#fe5001"/>
  </g>
</svg>
