<svg id="Group_170" data-name="Group 170" xmlns="http://www.w3.org/2000/svg" xmlns:xlink="http://www.w3.org/1999/xlink" width="77.03" height="62.22" viewBox="0 0 77.03 62.22">
  <defs>
    <clipPath id="clip-path">
      <rect id="Rectangle_147" data-name="Rectangle 147" width="77.03" height="62.22" fill="none"/>
    </clipPath>
  </defs>
  <g id="Group_160" data-name="Group 160" transform="translate(0)" clip-path="url(#clip-path)">
    <path id="Path_35" data-name="Path 35" d="M38.515,62.22c-10.228,0-19.87-3.2-27.115-9C4.048,47.358,0,39.474,0,31.11S4.048,14.916,11.4,9C18.645,3.2,28.287,0,38.515,0S58.385,3.2,65.63,9c7.351,5.86,11.4,13.744,11.4,22.108S72.981,47.3,65.63,53.218c-7.245,5.807-16.887,9-27.115,9" transform="translate(0 0)" fill="#fff"/>
    <path id="Path_36" data-name="Path 36" d="M79.342,35.406c0-16.141-16.407-29.192-36.65-29.192S6.041,19.265,6.041,35.406c0,14.064,12.519,25.836,29.192,28.606,2.291-11.986,15.289-20.3,21.149-24.984,4.528-3.623,4.475-6.979,3.516-9.376-.213-.533-.746-.373-1.012-.213-.639.373-3.409,1.492-4.954-1.065a.288.288,0,0,0-.426-.106c-.16.106-.107.32-.053.479.479,1.545,1.332,2.557,2.5,2.717a3.857,3.857,0,0,0,1.971-.48c.533-.213.639.053.639.32.213,3.356-4,6.073-5.274,7.085C50.575,40.574,39.5,48.511,36.832,50c-4.368,2.5-8.843,4.528-13.158.693-3.356-2.983-4.1-7.937-4.848-11.187a5.565,5.565,0,0,0-2.77-3.836c-1.012-.586-.746-.959.106-1.172,7.724-1.865,28.5-5.913,34.466-7.351.373-.107,1.492-.266,1.332-1.065-.106-.64-1.438-.373-1.918-.32C42.425,27.1,17.388,31.731,15.63,32.05a2.888,2.888,0,0,0-2.29,1.7c-.32.692-.906.959-1.225-.053a2.756,2.756,0,0,1-.106-1.172c.213-1.652.746-2.717,2.5-2.877,1.652-.16,5.807-.746,7.085-1.012,5.381-1.119,16.887-2.983,28.127-5.966a11.5,11.5,0,0,1,7.565-4.634,11.928,11.928,0,0,1,12.146,5.593c1.492,2.4,2.237,5.487,1.811,5.594-.266.053-1.811-1.279-1.758-.106,0,.586-.053,1.332-.106,1.971-.8,7.032-7.618,12.891-12.678,18.112a15.182,15.182,0,0,0-2.451,3.3c-.852,1.6-1.172,3.462-.426,4.794a3.873,3.873,0,0,0,3.25,2.024c1.492.16,3.889-.106,7.618-1.385A17.856,17.856,0,0,0,71.031,54c5.167-5.114,8.31-11.56,8.31-18.591" transform="translate(-4.176 -4.296)" fill="#fe5000"/>
    <path id="Path_37" data-name="Path 37" d="M159.825,57.413a1.492,1.492,0,1,0,1.492-1.492,1.489,1.489,0,0,0-1.492,1.492" transform="translate(-110.496 -38.661)" fill="#fe5000"/>
  </g>
</svg>
