<svg xmlns="http://www.w3.org/2000/svg" xmlns:xlink="http://www.w3.org/1999/xlink" width="198.355" height="51.641" viewBox="0 0 198.355 51.641">
  <defs>
    <clipPath id="clip-path">
      <rect id="Rectangle_220" data-name="Rectangle 220" width="198.355" height="51.641" fill="none"/>
    </clipPath>
  </defs>
  <g id="Group_168" data-name="Group 168" transform="translate(0)">
    <rect id="Rectangle_219" data-name="Rectangle 219" width="9.569" height="39.446" transform="translate(0 0.703)" fill="#84bd00"/>
    <g id="Group_166" data-name="Group 166" transform="translate(0 0)">
      <g id="Group_165" data-name="Group 165" clip-path="url(#clip-path)">
        <path id="Path_38" data-name="Path 38" d="M32.391,30.753h-8.63V28.736a14.686,14.686,0,0,1,.8-5.394,7.619,7.619,0,0,1,3.237-3.377,12.17,12.17,0,0,1,6.332-1.454c3.1,0,5.441.563,7.035,1.641a6.361,6.361,0,0,1,2.861,4.034,62.487,62.487,0,0,1,.469,9.9v15.15H35.533V46.56A6.112,6.112,0,0,1,33.376,49a5.862,5.862,0,0,1-3.189.8,7.766,7.766,0,0,1-4.409-1.36c-1.36-.891-2.017-2.861-2.017-5.91V40.04c0-2.251.375-3.8,1.079-4.643.7-.8,2.486-1.783,5.3-2.861,3-1.172,4.643-1.97,4.831-2.392a5.962,5.962,0,0,0,.328-2.486,8.269,8.269,0,0,0-.375-3.1,1.2,1.2,0,0,0-1.172-.7c-.61,0-1.032.187-1.172.61a12.885,12.885,0,0,0-.235,3.142v3.143ZM35.3,34.88c-1.454,1.079-2.345,1.97-2.58,2.72a10.789,10.789,0,0,0-.375,3.143,8.465,8.465,0,0,0,.328,3.049,1.181,1.181,0,0,0,1.219.7,1.194,1.194,0,0,0,1.126-.516,8.217,8.217,0,0,0,.282-2.814Z" transform="translate(-11.66 -9.083)" fill="#84bd00"/>
        <path id="Path_39" data-name="Path 39" d="M101.906,22.607h-12.9v-8.63a15.157,15.157,0,0,0-.422-4.691,1.813,1.813,0,0,0-1.829-.938,1.884,1.884,0,0,0-2.017,1.126,17.421,17.421,0,0,0-.422,4.878v23.03a16.04,16.04,0,0,0,.422,4.69,2.188,2.188,0,0,0,3.8-.047,19.161,19.161,0,0,0,.422-5.206v-6.1h12.9v1.923c0,5.113-.375,8.771-1.079,10.929A11.051,11.051,0,0,1,96,49.2,16.611,16.611,0,0,1,86.85,51.64a18.964,18.964,0,0,1-9.334-2.064A10.086,10.086,0,0,1,72.638,43.9c-.8-2.439-1.172-6.05-1.172-10.929V18.479a65.958,65.958,0,0,1,.375-8.021,11.086,11.086,0,0,1,2.2-5.159,12.243,12.243,0,0,1,5.065-3.893A18.479,18.479,0,0,1,86.522,0,18.147,18.147,0,0,1,95.9,2.2a10.505,10.505,0,0,1,4.878,5.488c.8,2.2,1.172,5.581,1.172,10.225v4.69Z" transform="translate(-35.068 0)" fill="#84bd00"/>
        <path id="Path_40" data-name="Path 40" d="M164.722,33.107V43.05a40.784,40.784,0,0,1-.563,8.02,11.988,11.988,0,0,1-2.345,4.784,10.657,10.657,0,0,1-4.643,3.283,18.439,18.439,0,0,1-6.52,1.079,22.906,22.906,0,0,1-6.942-.891,9.448,9.448,0,0,1-4.409-2.72,11.234,11.234,0,0,1-2.252-4.409,32.25,32.25,0,0,1-.656-7.739V33.951a26.3,26.3,0,0,1,1.219-8.865,10.112,10.112,0,0,1,4.409-5.112,15.681,15.681,0,0,1,8.162-1.923,19.041,19.041,0,0,1,7.129,1.219,11.874,11.874,0,0,1,4.6,3.237,10.91,10.91,0,0,1,2.2,4.081,25.158,25.158,0,0,1,.61,6.52m-12.383-3.1a13.466,13.466,0,0,0-.328-3.94,1.368,1.368,0,0,0-1.454-.8,1.431,1.431,0,0,0-1.454.8,12.691,12.691,0,0,0-.375,3.94V48.351A12.051,12.051,0,0,0,149.1,52.1a1.676,1.676,0,0,0,2.908.094,10.156,10.156,0,0,0,.375-3.424V30.011Z" transform="translate(-66.928 -8.858)" fill="#84bd00"/>
        <path id="Path_41" data-name="Path 41" d="M209.648,18.8l-.234,3.846a10.105,10.105,0,0,1,3.423-3.471,8.967,8.967,0,0,1,4.55-1.126,8.778,8.778,0,0,1,7.786,4.6,11.234,11.234,0,0,1,3.518-3.471,8.635,8.635,0,0,1,4.362-1.126,8.375,8.375,0,0,1,5.207,1.548,6.7,6.7,0,0,1,2.626,3.752,32.823,32.823,0,0,1,.563,7.223V59.419H229.441V32.966c0-3.471-.094-5.629-.375-6.426a1.534,1.534,0,0,0-1.641-1.22,1.6,1.6,0,0,0-1.689,1.22,32.407,32.407,0,0,0-.375,6.473V59.466H213.353v-25.8a49.07,49.07,0,0,0-.281-7.176,1.459,1.459,0,0,0-1.595-1.173,1.785,1.785,0,0,0-1.407.61,2.578,2.578,0,0,0-.656,1.548c-.047.61-.047,1.876-.047,3.846V59.466H197.359V18.848h12.289Z" transform="translate(-96.844 -8.857)" fill="#84bd00"/>
        <path id="Path_42" data-name="Path 42" d="M318.06,39.905H302.066v8.771a11.012,11.012,0,0,0,.375,3.565,1.62,1.62,0,0,0,1.548.8,1.874,1.874,0,0,0,1.876-1.079,11.275,11.275,0,0,0,.469-4.081V42.532H318.06v3a25.656,25.656,0,0,1-.469,5.769,12.567,12.567,0,0,1-2.2,4.315,10.544,10.544,0,0,1-4.409,3.424,17.425,17.425,0,0,1-6.707,1.126,19.325,19.325,0,0,1-6.895-1.126,11.107,11.107,0,0,1-4.69-3.1,10.892,10.892,0,0,1-2.3-4.362,28.363,28.363,0,0,1-.656-6.895V32.87a19.7,19.7,0,0,1,1.454-8.4,9.7,9.7,0,0,1,4.69-4.69,18.956,18.956,0,0,1,16.135.328,10.677,10.677,0,0,1,4.737,5.253,24.7,24.7,0,0,1,1.36,9.146v5.394Zm-12.383-6.613V30.337a14.682,14.682,0,0,0-.328-4.081,1.366,1.366,0,0,0-1.36-.938c-.844,0-1.407.281-1.6.8a16.67,16.67,0,0,0-.328,4.221v2.955Z" transform="translate(-142.171 -8.902)" fill="#84bd00"/>
        <path id="Path_43" data-name="Path 43" d="M363.172,18.8l-.469,5.347c1.783-3.846,4.409-5.863,7.786-6.1V32.356a10.235,10.235,0,0,0-4.972.938,3.771,3.771,0,0,0-1.97,2.533,46.668,46.668,0,0,0-.375,7.552V59.419H350.789V18.8Z" transform="translate(-172.133 -8.857)" fill="#84bd00"/>
      </g>
    </g>
  </g>
</svg>
